<svg width="18" height="18" viewBox="0 0 18 18" fill="none" xmlns="http://www.w3.org/2000/svg">
<g id="Iconly/Light/Camera">
<g id="Camera">
<path id="Stroke 1" fill-rule="evenodd" clip-rule="evenodd" d="M11.2802 3.03838C12.0377 3.33988 12.2694 4.38988 12.5792 4.72738C12.8889 5.06488 13.3322 5.17963 13.5774 5.17963C14.8809 5.17963 15.9377 6.23638 15.9377 7.53913V11.8854C15.9377 13.6329 14.5202 15.0504 12.7727 15.0504H5.22765C3.4794 15.0504 2.06265 13.6329 2.06265 11.8854V7.53913C2.06265 6.23638 3.1194 5.17963 4.4229 5.17963C4.6674 5.17963 5.11065 5.06488 5.42115 4.72738C5.7309 4.38988 5.9619 3.33988 6.7194 3.03838C7.47765 2.73688 10.5227 2.73688 11.2802 3.03838Z" stroke="#130F26" stroke-linecap="round" stroke-linejoin="round"/>
<path id="Stroke 13" d="M13.1216 7.125H13.1284" stroke="#130F26" stroke-linecap="round" stroke-linejoin="round"/>
<path id="Stroke 5" fill-rule="evenodd" clip-rule="evenodd" d="M11.3842 9.84592C11.3842 8.52892 10.3169 7.46167 8.99993 7.46167C7.68293 7.46167 6.61568 8.52892 6.61568 9.84592C6.61568 11.1629 7.68293 12.2302 8.99993 12.2302C10.3169 12.2302 11.3842 11.1629 11.3842 9.84592Z" stroke="#130F26" stroke-linecap="round" stroke-linejoin="round"/>
</g>
</g>
</svg>
