<svg width="28" height="29" viewBox="0 0 28 29" fill="none" xmlns="http://www.w3.org/2000/svg">
<g id="Iconly/Bold/Setting">
<g id="Setting">
<path id="Setting_2" fill-rule="evenodd" clip-rule="evenodd" d="M23.8026 16.4699C24.2199 16.6977 24.5418 17.0573 24.7684 17.4169C25.2095 18.1601 25.1737 19.071 24.7445 19.8741L23.9099 21.3125C23.4688 22.0797 22.6461 22.5592 21.7996 22.5592C21.3823 22.5592 20.9173 22.4393 20.5358 22.1996C20.2258 21.9958 19.8681 21.9239 19.4865 21.9239C18.3062 21.9239 17.3166 22.9188 17.2808 24.1054C17.2808 25.4839 16.1839 26.5627 14.8128 26.5627H13.1913C11.8082 26.5627 10.7113 25.4839 10.7113 24.1054C10.6875 22.9188 9.6979 21.9239 8.51754 21.9239C8.12409 21.9239 7.7664 21.9958 7.46833 22.1996C7.0868 22.4393 6.60989 22.5592 6.20451 22.5592C5.34607 22.5592 4.52339 22.0797 4.08224 21.3125L3.25957 19.8741C2.81842 19.095 2.79458 18.1601 3.23572 17.4169C3.42649 17.0573 3.78417 16.6977 4.18955 16.4699C4.52339 16.3021 4.738 16.0264 4.94069 15.7028C5.53683 14.6719 5.17915 13.3174 4.1657 12.7061C2.98534 12.0229 2.60381 10.5006 3.28341 9.31388L4.08224 7.89945C4.77377 6.71277 6.2522 6.29324 7.44448 6.98847C8.48177 7.56383 9.82905 7.18025 10.4371 6.16139C10.6279 5.82576 10.7352 5.46616 10.7113 5.10656C10.6875 4.63908 10.8186 4.19557 11.0452 3.83597C11.4863 3.0928 12.2852 2.61333 13.1555 2.58936H14.8366C15.7189 2.58936 16.5178 3.0928 16.9589 3.83597C17.1735 4.19557 17.3166 4.63908 17.2808 5.10656C17.257 5.46616 17.3643 5.82576 17.5551 6.16139C18.1631 7.18025 19.5104 7.56383 20.5596 6.98847C21.74 6.29324 23.2303 6.71277 23.9099 7.89945L24.7088 9.31388C25.4003 10.5006 25.0187 12.0229 23.8265 12.7061C22.813 13.3174 22.4553 14.6719 23.0634 15.7028C23.2542 16.0264 23.4688 16.3021 23.8026 16.4699ZM10.6279 14.588C10.6279 16.4699 12.1421 17.9683 14.014 17.9683C15.8859 17.9683 17.3643 16.4699 17.3643 14.588C17.3643 12.7061 15.8859 11.1958 14.014 11.1958C12.1421 11.1958 10.6279 12.7061 10.6279 14.588Z" fill="#333333"/>
</g>
</g>
</svg>
